<svg width="121" height="193" viewBox="0 0 121 193" fill="none" xmlns="http://www.w3.org/2000/svg">
<path opacity="0.2" d="M227.638 29.6864C238.765 93.18 206.281 171.734 141.588 174.474C93.4185 176.514 121.84 105.933 103.382 75.3852C88.1017 50.0965 17.5195 50.8857 12.4801 22.1291C-1.2292 -56.1012 28.2164 -53.8544 92.0001 -65.0349C155.784 -76.2154 216.511 -33.8072 227.638 29.6864Z" fill="#7DB1FA"/>
<path d="M243.727 15.1385C254.854 78.6321 222.37 157.186 157.677 159.926C109.507 161.966 137.929 91.3851 119.471 60.8373C104.191 35.5487 33.6084 36.3378 28.569 7.58123C14.8597 -70.6491 44.3052 -68.4022 108.089 -79.5827C171.873 -90.7632 232.6 -48.3551 243.727 15.1385Z" fill="#7DB1FA"/>
</svg>
