<svg width="157" height="186" viewBox="0 0 157 186" fill="none" xmlns="http://www.w3.org/2000/svg">
<g filter="url(#filter0_d_1513_898)">
<path opacity="0.2" d="M240.821 -32.1154C273.363 23.5283 270.271 108.477 210.582 133.576C166.138 152.264 168.2 76.2034 140.259 53.9961C117.128 35.6121 51.2394 60.933 36.5006 35.7317C-3.59506 -32.8268 24.7896 -40.9754 80.6866 -73.6694C136.584 -106.363 208.278 -87.7591 240.821 -32.1154Z" fill="#92D9AA"/>
<path d="M255.523 -53.0968C288.066 2.54685 284.973 87.496 225.284 112.594C180.84 131.282 182.902 55.2219 154.961 33.0147C131.83 14.6307 65.9415 39.9515 51.2028 14.7502C11.1071 -53.8082 39.4918 -61.9568 95.3888 -94.6508C151.286 -127.345 222.98 -108.741 255.523 -53.0968Z" fill="#92D9AA"/>
</g>
<defs>
<filter id="filter0_d_1513_898" x="13.7002" y="-110.773" width="266.436" height="255.276" filterUnits="userSpaceOnUse" color-interpolation-filters="sRGB">
<feFlood flood-opacity="0" result="BackgroundImageFix"/>
<feColorMatrix in="SourceAlpha" type="matrix" values="0 0 0 0 0 0 0 0 0 0 0 0 0 0 0 0 0 0 127 0" result="hardAlpha"/>
<feOffset dy="4"/>
<feGaussianBlur stdDeviation="2"/>
<feComposite in2="hardAlpha" operator="out"/>
<feColorMatrix type="matrix" values="0 0 0 0 0 0 0 0 0 0 0 0 0 0 0 0 0 0 0.25 0"/>
<feBlend mode="normal" in2="BackgroundImageFix" result="effect1_dropShadow_1513_898"/>
<feBlend mode="normal" in="SourceGraphic" in2="effect1_dropShadow_1513_898" result="shape"/>
</filter>
</defs>
</svg>
