<svg width="119" height="171" viewBox="0 0 119 171" fill="none" xmlns="http://www.w3.org/2000/svg">
<path opacity="0.2" d="M220.065 42.4139C215 106.676 163.947 174.642 100.615 161.156C53.4599 151.115 98.5906 89.8559 88.3371 55.6692C79.8489 27.3682 11.3015 10.5241 13.5954 -18.5805C19.8359 -97.7574 47.7899 -88.2357 112.346 -83.1504C176.903 -78.065 225.13 -21.848 220.065 42.4139Z" fill="#7DB1FA"/>
<path d="M239.408 33.0721C234.343 97.3339 183.289 165.301 119.958 151.815C72.8027 141.773 117.933 80.5141 107.68 46.3275C99.1917 18.0264 30.6443 1.18229 32.9382 -27.9223C39.1787 -107.099 67.1327 -97.5775 131.689 -92.4922C196.245 -87.4068 244.473 -31.1898 239.408 33.0721Z" fill="#7DB1FA"/>
</svg>
