<svg width="66" height="67" viewBox="0 0 66 67" fill="none" xmlns="http://www.w3.org/2000/svg">
<path d="M57.75 16.75C62.2617 16.75 66 20.4883 66 25V58C66 62.6406 62.2617 66.25 57.75 66.25H8.25C3.60938 66.25 0 62.6406 0 58V25C0 20.4883 3.60938 16.75 8.25 16.75H57.75ZM57.75 20.875H8.25C5.92969 20.875 4.125 22.8086 4.125 25V58C4.125 60.3203 5.92969 62.125 8.25 62.125H57.75C59.9414 62.125 61.875 60.3203 61.875 58V25C61.875 22.8086 59.9414 20.875 57.75 20.875ZM57.75 8.5C58.7812 8.5 59.8125 9.53125 59.8125 10.5625C59.8125 11.7227 58.7812 12.625 57.75 12.625H8.25C7.08984 12.625 6.1875 11.7227 6.1875 10.5625C6.1875 9.53125 7.08984 8.5 8.25 8.5H57.75ZM51.5625 0.25C52.5938 0.25 53.625 1.28125 53.625 2.3125C53.625 3.47266 52.5938 4.375 51.5625 4.375H14.4375C13.2773 4.375 12.375 3.47266 12.375 2.3125C12.375 1.28125 13.2773 0.25 14.4375 0.25H51.5625Z" fill="#4165B9"/>
</svg>
