<svg width="30" height="30" viewBox="0 0 30 30" fill="none" xmlns="http://www.w3.org/2000/svg">
<path d="M26.7188 4.6875H3.28125C1.47199 4.6875 0 6.15949 0 7.96875V22.0312C0 23.8405 1.47199 25.3125 3.28125 25.3125H26.7188C28.528 25.3125 30 23.8405 30 22.0312V7.96875C30 6.15949 28.528 4.6875 26.7188 4.6875ZM3.28125 6.5625H26.7188C27.4941 6.5625 28.125 7.19338 28.125 7.96875V9.84375H1.875V7.96875C1.875 7.19338 2.50588 6.5625 3.28125 6.5625ZM26.7188 23.4375H3.28125C2.50588 23.4375 1.875 22.8066 1.875 22.0312V11.7188H28.125V22.0312C28.125 22.8066 27.4941 23.4375 26.7188 23.4375Z" fill="#002D2D"/>
<path d="M6.5625 20.625H5.625C5.10727 20.625 4.6875 20.2052 4.6875 19.6875V18.75C4.6875 18.2323 5.10727 17.8125 5.625 17.8125H6.5625C7.08023 17.8125 7.5 18.2323 7.5 18.75V19.6875C7.5 20.2052 7.08023 20.625 6.5625 20.625Z" fill="#002D2D"/>
</svg>
