<svg width="20" height="20" viewBox="0 0 20 20" fill="none" xmlns="http://www.w3.org/2000/svg">
<path d="M18.6334 4.56366L15.4368 1.36699C15.0196 0.975101 14.4729 0.750241 13.9007 0.735183C13.3285 0.720125 12.7707 0.91592 12.3334 1.28532L1.83344 11.7853C1.45633 12.1656 1.22152 12.6641 1.16844 13.197L0.666769 18.062C0.651052 18.2329 0.673225 18.4051 0.731707 18.5664C0.790188 18.7278 0.883538 18.8742 1.0051 18.9953C1.11412 19.1035 1.2434 19.189 1.38554 19.2471C1.52769 19.3051 1.67989 19.3345 1.83344 19.3337H1.93844L6.80344 18.8903C7.33636 18.8372 7.83481 18.6024 8.2151 18.2253L18.7151 7.72532C19.1226 7.29478 19.3429 6.72025 19.3276 6.12761C19.3123 5.53498 19.0627 4.97258 18.6334 4.56366ZM6.59343 16.557L3.09344 16.8837L3.40844 13.3837L10.0001 6.87366L13.1501 10.0237L6.59343 16.557ZM14.6668 8.46032L11.5401 5.33366L13.8151 3.00032L17.0001 6.18532L14.6668 8.46032Z" fill="#002D2D"/>
</svg>
