<svg width="33" height="33" viewBox="0 0 33 33" fill="none" xmlns="http://www.w3.org/2000/svg">
<path d="M31.02 16.8438C31.02 15.7713 30.9237 14.74 30.745 13.75H16.5V19.6006H24.64C24.2894 21.4913 23.2237 23.0931 21.6219 24.1656V27.9606H26.51C29.37 25.3275 31.02 21.45 31.02 16.8438Z" fill="#4285F4"/>
<path d="M16.4997 31.625C20.5834 31.625 24.0072 30.2707 26.5097 27.9607L21.6215 24.1657C20.2672 25.0732 18.5347 25.6094 16.4997 25.6094C12.5603 25.6094 9.2259 22.9488 8.03652 19.3738H2.9834V23.2925C5.47215 28.2357 10.5872 31.625 16.4997 31.625Z" fill="#34A853"/>
<path d="M8.03688 19.3738C7.73438 18.4663 7.5625 17.4969 7.5625 16.5C7.5625 15.5031 7.73438 14.5338 8.03688 13.6263V9.70752H2.98375C1.925 11.8152 1.37407 14.1414 1.375 16.5C1.375 18.9406 1.95938 21.2506 2.98375 23.2925L8.03688 19.3738Z" fill="#FBBC05"/>
<path d="M16.4996 7.39063C18.7203 7.39063 20.714 8.15375 22.2815 9.6525L26.6196 5.31438C24.0003 2.87375 20.5765 1.375 16.4996 1.375C10.5871 1.375 5.47215 4.76438 2.9834 9.7075L8.03652 13.6263C9.2259 10.0513 12.5603 7.39063 16.4996 7.39063Z" fill="#EA4335"/>
</svg>
