<svg width="23" height="17" viewBox="0 0 23 17" fill="none" xmlns="http://www.w3.org/2000/svg">
<path d="M21.6914 4.06641L11.6367 0.445312C11.3906 0.375 11.0742 0.375 10.8281 0.445312L0.773438 4.06641C0.28125 4.24219 0 4.66406 0 5.15625C0 5.61328 0.28125 6.07031 0.773438 6.24609L1.6875 6.59766V10.5703L0.5625 15.457C0.527344 15.6328 0.5625 15.8086 0.667969 15.9492C0.773438 16.0547 0.949219 16.125 1.125 16.125H3.33984C3.51562 16.125 3.69141 16.0547 3.79688 15.9141C3.90234 15.8086 3.9375 15.6328 3.90234 15.457L2.8125 10.5V6.98438L10.8281 9.86719C10.9688 9.9375 11.1094 9.9375 11.2148 9.9375C11.3555 9.9375 11.4961 9.9375 11.6367 9.86719L21.6914 6.28125C22.1836 6.10547 22.5 5.68359 22.5 5.15625C22.5 4.59375 22.1836 4.24219 21.6914 4.06641ZM1.82812 15L2.25 13.1367L2.67188 15H1.82812ZM11.2148 8.8125L4.53516 6.42188L11.3906 4.3125C11.707 4.20703 11.8477 3.89062 11.7773 3.60938C11.6719 3.29297 11.3555 3.15234 11.0742 3.22266L2.77734 5.78906L1.125 5.15625L11.25 1.53516L21.375 5.15625L11.2148 8.8125ZM16.9453 9.41016C16.6289 9.44531 16.418 9.72656 16.4531 10.043L16.8398 13.0664C16.9102 13.3828 16.6992 13.6992 16.3477 13.875C14.8008 14.5781 13.043 14.9648 11.2852 15H11.1797C9.42188 14.9648 7.66406 14.5781 6.11719 13.875C5.76562 13.6992 5.55469 13.3828 5.625 13.0664L6.01172 10.043C6.04688 9.72656 5.83594 9.44531 5.51953 9.41016C5.20312 9.33984 4.92188 9.58594 4.88672 9.86719L4.5 12.9258C4.39453 13.7344 4.85156 14.5078 5.66016 14.8945C7.34766 15.668 9.24609 16.0898 11.1797 16.125H11.3203C13.2188 16.0898 15.1172 15.668 16.8047 14.8945C17.6133 14.5078 18.0703 13.7344 17.9648 12.9258L17.5781 9.86719C17.543 9.58594 17.2617 9.33984 16.9453 9.41016Z" fill="#002D2D"/>
</svg>
