<svg width="28" height="28" viewBox="0 0 28 28" fill="none" xmlns="http://www.w3.org/2000/svg">
<circle cx="14" cy="14" r="14" fill="#E9F7EE"/>
<path d="M16.875 8.5C17.4844 8.5 18 9.01562 18 9.625V19.375C18 20.0078 17.4844 20.5 16.875 20.5H14.625V18.625C14.625 18.0156 14.1094 17.5 13.5 17.5C12.8672 17.5 12.375 18.0156 12.375 18.625V20.5H10.125C9.49219 20.5 9 20.0078 9 19.375V9.625C9 9.01562 9.49219 8.5 10.125 8.5H16.875ZM10.5 14.875C10.5 15.0859 10.6641 15.25 10.875 15.25H11.625C11.8125 15.25 12 15.0859 12 14.875V14.125C12 13.9375 11.8125 13.75 11.625 13.75H10.875C10.6641 13.75 10.5 13.9375 10.5 14.125V14.875ZM13.125 13.75C12.9141 13.75 12.75 13.9375 12.75 14.125V14.875C12.75 15.0859 12.9141 15.25 13.125 15.25H13.875C14.0625 15.25 14.25 15.0859 14.25 14.875V14.125C14.25 13.9375 14.0625 13.75 13.875 13.75H13.125ZM15 14.875C15 15.0859 15.1641 15.25 15.375 15.25H16.125C16.3125 15.25 16.5 15.0859 16.5 14.875V14.125C16.5 13.9375 16.3125 13.75 16.125 13.75H15.375C15.1641 13.75 15 13.9375 15 14.125V14.875ZM10.875 10.75C10.6641 10.75 10.5 10.9375 10.5 11.125V11.875C10.5 12.0859 10.6641 12.25 10.875 12.25H11.625C11.8125 12.25 12 12.0859 12 11.875V11.125C12 10.9375 11.8125 10.75 11.625 10.75H10.875ZM12.75 11.875C12.75 12.0859 12.9141 12.25 13.125 12.25H13.875C14.0625 12.25 14.25 12.0859 14.25 11.875V11.125C14.25 10.9375 14.0625 10.75 13.875 10.75H13.125C12.9141 10.75 12.75 10.9375 12.75 11.125V11.875ZM15.375 10.75C15.1641 10.75 15 10.9375 15 11.125V11.875C15 12.0859 15.1641 12.25 15.375 12.25H16.125C16.3125 12.25 16.5 12.0859 16.5 11.875V11.125C16.5 10.9375 16.3125 10.75 16.125 10.75H15.375Z" fill="#32A68C"/>
</svg>
