<svg width="421" height="495" viewBox="0 0 421 495" fill="none" xmlns="http://www.w3.org/2000/svg">
<path opacity="0.6" d="M418.104 435.745C414.196 424.655 404.917 414.307 393.997 410.621C399.855 393.548 398.711 374.61 387.272 359.008C369.467 334.785 331.708 331.47 308.766 350.397C299.15 358.401 292.785 369.639 290.866 382.003C278.697 374.938 261.496 380.753 251.042 388.919C241.764 396.164 235.684 405.866 231.807 416.637C227.422 369.515 217.244 322.816 195.986 280.355C192.3 272.94 188.572 264.022 183.17 257.731C177.938 251.619 169.687 258.091 164.201 260.908C163.28 261.317 162.608 262.139 162.39 263.122C161.14 264.181 161.966 265.727 162.909 267.602C165.398 272.57 170.069 286 176.159 306.008C182.249 326.015 192.428 383.083 192.3 423.787C187.667 421.156 182.419 419.8 177.091 419.857C174.506 408.99 165.567 399.839 155.59 394.681C142.06 387.629 126.092 386.969 112.026 392.88C93.2155 400.983 82.1896 418.438 80.5055 437.143C77.2128 437.087 73.9446 437.718 70.9095 438.996C64.6922 441.634 56.9179 447.47 54.2488 453.825C51.1667 461.239 50.7536 472.498 52.8401 480.113C54.6301 486.669 59.0468 491.944 65.5501 494.073C65.8932 494.181 66.2496 494.242 66.6093 494.253C66.7364 494.253 66.8635 494.253 67.0012 494.253H397.461C398.766 494.308 399.983 493.596 400.575 492.431C402.145 491.52 403.529 490.32 404.653 488.894C404.921 488.741 405.17 488.556 405.394 488.343C419.384 474.708 424.325 454.263 418.104 435.745Z" fill="#7DB1FA"/>
<path d="M220.453 240.064C211.277 228.478 200.647 218.123 188.826 209.252C187.907 208.573 186.694 208.439 185.649 208.903L120.616 238.284C119.161 238.944 118.422 240.58 118.89 242.108L121.294 250.009C123.666 261.342 129.089 281.371 132.129 292.376C132.874 294.994 134.812 297.107 137.357 298.075C139.902 299.043 142.754 298.752 145.051 297.29C152.084 292.789 163.565 285.449 171.244 280.555C185.928 271.36 201.135 263.028 216.788 255.601C219.593 254.268 221.638 251.73 222.343 248.705C223.048 245.681 222.337 242.5 220.411 240.064H220.453Z" fill="#92D9AA"/>
<path d="M57.6697 286.698C48.9951 287.535 41.4539 284.464 36.4864 277.727C31.9532 271.648 30.2797 264.054 28.9663 256.809L28.2355 252.805C19.3279 204.158 12.92 169.015 7.29579 120.918C6.76621 116.416 6.23663 111.809 5.60113 107.149C3.94883 94.0998 2.25417 80.6061 1.51275 67.8537C1.36447 65.2588 1.15263 62.5579 0.930208 59.8146C-0.0548155 48.1638 -1.11398 34.8819 2.64606 23.2946C6.50142 11.2837 16.0551 3.05397 28.8392 0.702619C40.0982 -1.36275 52.0561 1.11569 65.4016 8.26506C88.9786 20.8903 111.655 36.1847 133.58 50.9812L140.444 55.578C164.868 72.0268 189.165 89.3442 212.583 107.064C214.839 108.78 217.148 110.443 219.606 112.212C228.651 118.747 238.014 125.493 244.792 134.454C253.414 145.808 253.033 159.514 243.733 171.122C236.033 180.782 225.367 188.863 215.962 195.992L213.738 197.676C203.443 205.492 192.025 213.245 178.785 221.359C162.156 231.59 144.807 241.123 128.019 250.327C120.033 254.712 111.782 259.245 103.722 263.778C99.8351 265.981 95.8738 268.417 92.0714 270.769C84.6572 275.323 77.0312 280.026 68.9498 283.595C65.3777 285.22 61.5703 286.268 57.6697 286.698Z" fill="#F7EEDE"/>
<path d="M72.5298 179.214C68.29 176.501 64.5226 173.113 61.3768 169.184C42.7885 145.882 50.7852 106.45 76.131 91.3882C95.196 80.0657 121.675 83.2856 137.563 98.8023C141.844 102.993 145.294 107.956 147.731 113.429C153.026 125.472 152.687 139.644 147.826 151.867C142.022 166.441 135.116 175.295 120.478 181.915C116.419 183.813 112.154 185.235 107.768 186.152C95.5672 188.431 82.9566 185.948 72.5298 179.214Z" fill="#92D9AA" stroke="#002D2D" stroke-width="3"/>
<path d="M7.26416 82.6291C37.9535 70.6912 66.1549 53.1497 90.4298 30.8994" stroke="#002D2D" stroke-width="3" stroke-linecap="round" stroke-linejoin="round"/>
<path fill-rule="evenodd" clip-rule="evenodd" d="M72.5298 179.214C68.29 176.501 64.5226 173.113 61.3768 169.184C42.7885 145.882 50.7852 106.45 76.131 91.3882C95.196 80.0657 121.675 83.2856 137.563 98.8023C141.844 102.993 145.294 107.956 147.731 113.429C153.026 125.472 152.687 139.644 147.826 151.867C142.022 166.441 135.116 175.295 120.478 181.915C116.419 183.813 112.154 185.235 107.768 186.152C95.5672 188.431 82.9566 185.948 72.5298 179.214V179.214Z" stroke="#002D2D" stroke-width="3" stroke-linecap="round" stroke-linejoin="round"/>
<path d="M78.6621 132.505L78.3443 126.002" stroke="#002D2D" stroke-width="3" stroke-linecap="round" stroke-linejoin="round"/>
<path d="M100.206 123.894L99.8878 117.391" stroke="#002D2D" stroke-width="3" stroke-linecap="round" stroke-linejoin="round"/>
<path d="M87.6123 146.72C92.0545 149.562 97.6396 149.943 102.426 147.729C107.213 145.516 110.541 141.015 111.253 135.789" stroke="#002D2D" stroke-width="3" stroke-linecap="round" stroke-linejoin="round"/>
<path d="M122.31 179.384C120.306 172.293 118.889 165.048 118.074 157.724C117.716 156.128 117.842 154.461 118.434 152.937C119.165 151.485 121.177 150.575 122.48 151.549C123.049 152.059 123.47 152.715 123.698 153.445L126.303 159.8C125.975 153.35 126.78 146.899 127.574 140.491C127.881 138.066 128.22 135.545 129.576 133.511C130.932 131.478 133.622 130.101 135.868 131.065C136.894 136.406 137.531 141.815 137.774 147.249L140.952 132.611C141.428 130.398 142.286 127.771 144.5 127.241C146.396 126.786 148.207 128.184 149.637 129.518" stroke="#002D2D" stroke-width="3" stroke-linecap="round" stroke-linejoin="round"/>
<path d="M222.455 186.247C213.558 159.842 208.103 132.378 202.818 105.009" stroke="#002D2D" stroke-width="3" stroke-linecap="round" stroke-linejoin="round"/>
<path d="M84.3395 270.716C65.3804 249.087 47.7983 232.586 25.4604 214.421" stroke="#002D2D" stroke-width="3" stroke-linecap="round" stroke-linejoin="round"/>
<path d="M135.338 251.217C139.575 263.63 147.773 284.676 147.773 284.676" stroke="#002D2D" stroke-width="3" stroke-linecap="round" stroke-linejoin="round"/>
<path d="M151.999 243.379C157.517 255.326 161.584 263.609 167.092 275.546" stroke="#002D2D" stroke-width="3" stroke-linecap="round" stroke-linejoin="round"/>
<path d="M170.704 233.316C177.538 242.287 183.738 251.722 189.261 261.554" stroke="#002D2D" stroke-width="3" stroke-linecap="round" stroke-linejoin="round"/>
<path d="M186.824 224.102C194.909 232.359 202.098 241.447 208.272 251.216" stroke="#002D2D" stroke-width="3" stroke-linecap="round" stroke-linejoin="round"/>
<path fill-rule="evenodd" clip-rule="evenodd" d="M65.2746 190.166C59.9469 186.779 55.2128 182.539 51.2618 177.615C27.9602 148.477 37.9905 99.0886 69.7337 80.2249C93.5967 66.0532 126.791 70.0886 146.566 89.5667C151.918 94.8159 156.23 101.029 159.276 107.88C165.906 122.952 165.482 140.714 159.392 155.987C152.126 174.236 143.43 185.326 125.16 193.598C120.062 195.975 114.706 197.752 109.198 198.894C93.9798 201.688 78.2687 198.566 65.2746 190.166V190.166Z" stroke="#002D2D" stroke-width="3" stroke-linecap="round" stroke-linejoin="round"/>
</svg>
