<svg width="452" height="531" viewBox="0 0 452 531" fill="none" xmlns="http://www.w3.org/2000/svg">
<path opacity="0.6" d="M448.408 467.327C444.217 455.434 434.266 444.336 422.555 440.383C428.836 422.071 427.609 401.761 415.341 385.029C396.246 359.05 355.75 355.494 331.146 375.793C320.833 384.377 314.006 396.43 311.949 409.69C298.897 402.113 280.449 408.349 269.238 417.107C259.287 424.877 252.767 435.282 248.609 446.835C243.906 396.297 232.99 346.214 210.192 300.674C206.239 292.723 202.24 283.158 196.447 276.411C190.835 269.856 181.987 276.797 176.102 279.818C175.115 280.257 174.395 281.138 174.16 282.192C172.82 283.328 173.706 284.987 174.717 286.997C177.386 292.325 182.395 306.729 188.927 328.186C195.459 349.644 206.375 410.848 206.239 454.502C201.269 451.681 195.641 450.227 189.927 450.288C187.155 438.633 177.568 428.819 166.867 423.287C152.357 415.724 135.232 415.016 120.146 421.356C99.9721 430.046 88.147 448.766 86.3409 468.826C82.8095 468.767 79.3044 469.444 76.0493 470.814C69.3814 473.643 61.0436 479.902 58.1811 486.717C54.8755 494.669 54.4325 506.744 56.6703 514.911C58.59 521.943 63.3268 527.6 70.3015 529.883C70.6695 529.999 71.0517 530.064 71.4374 530.076C71.5737 530.076 71.71 530.076 71.8577 530.076H426.269C427.669 530.135 428.974 529.371 429.609 528.122C431.293 527.145 432.777 525.857 433.982 524.328C434.27 524.164 434.537 523.966 434.777 523.737C449.782 509.115 455.08 487.188 448.408 467.327Z" fill="#7DB1FA"/>
<path d="M236.432 257.463C226.591 245.038 215.191 233.932 202.513 224.419C201.527 223.69 200.226 223.547 199.105 224.044L129.359 255.555C127.799 256.262 127.006 258.018 127.507 259.656L130.086 268.13C132.63 280.284 138.446 301.765 141.706 313.567C142.505 316.375 144.584 318.642 147.313 319.68C150.042 320.718 153.101 320.405 155.565 318.838C163.107 314.01 175.421 306.138 183.656 300.89C199.405 291.028 215.714 282.092 232.501 274.127C235.51 272.697 237.702 269.975 238.459 266.731C239.215 263.487 238.452 260.076 236.386 257.463H236.432Z" fill="#92D9AA"/>
<path d="M61.8496 307.478C52.5463 308.376 44.4585 305.082 39.1309 297.857C34.2691 291.337 32.4744 283.192 31.0658 275.422L30.282 271.129C20.7288 218.955 13.8564 181.265 7.82459 129.682C7.25663 124.854 6.68866 119.913 6.0071 114.915C4.23504 100.92 2.41755 86.4484 1.62239 72.7718C1.46336 69.9887 1.23618 67.0921 0.99763 64.15C-0.0587886 51.6547 -1.19472 37.4101 2.83784 24.983C6.97264 12.1015 17.2188 3.27532 30.9295 0.753545C43.0045 -1.46153 55.8292 1.19656 70.1419 8.86411C95.4278 22.4044 119.748 38.8073 143.262 54.6763L150.623 59.6063C176.817 77.2473 202.876 95.8199 227.991 114.824C230.411 116.664 232.887 118.448 235.523 120.345C245.223 127.353 255.265 134.589 262.535 144.199C271.782 156.376 271.373 171.075 261.399 183.525C253.141 193.885 241.702 202.552 231.615 210.197L229.229 212.003C218.188 220.386 205.943 228.701 191.744 237.403C173.909 248.376 155.303 258.599 137.298 268.47C128.733 273.173 119.884 278.035 111.24 282.897C107.071 285.26 102.823 287.872 98.7447 290.394C90.7932 295.278 82.6145 300.322 73.9473 304.15C70.1163 305.893 66.0329 307.016 61.8496 307.478Z" fill="#F7EEDE"/>
<path d="M77.7872 192.204C73.2401 189.294 69.1996 185.661 65.8259 181.447C45.8902 156.456 54.4665 114.165 81.6494 98.0122C102.096 85.8691 130.495 89.3223 147.534 105.964C152.126 110.458 155.826 115.781 158.439 121.651C164.118 134.567 163.755 149.765 158.541 162.874C152.316 178.504 144.91 188.001 129.211 195.1C124.858 197.136 120.284 198.661 115.58 199.644C102.494 202.088 88.9698 199.426 77.7872 192.204Z" fill="#92D9AA" stroke="#002D2D" stroke-width="3"/>
<path d="M7.79102 88.618C40.7047 75.8149 70.9501 57.002 96.9845 33.139" stroke="#002D2D" stroke-width="3" stroke-linecap="round" stroke-linejoin="round"/>
<path fill-rule="evenodd" clip-rule="evenodd" d="M77.7872 192.204C73.2401 189.294 69.1996 185.661 65.8259 181.447C45.8902 156.456 54.4665 114.165 81.6494 98.0122C102.096 85.8691 130.495 89.3223 147.534 105.964C152.125 110.458 155.826 115.781 158.439 121.651C164.118 134.567 163.755 149.765 158.541 162.874C152.316 178.504 144.91 188.001 129.211 195.1C124.858 197.136 120.284 198.661 115.58 199.644C102.494 202.088 88.9698 199.426 77.7872 192.204V192.204Z" stroke="#002D2D" stroke-width="3" stroke-linecap="round" stroke-linejoin="round"/>
<path d="M84.3634 142.109L84.0226 135.135" stroke="#002D2D" stroke-width="3" stroke-linecap="round" stroke-linejoin="round"/>
<path d="M107.469 132.874L107.128 125.899" stroke="#002D2D" stroke-width="3" stroke-linecap="round" stroke-linejoin="round"/>
<path d="M93.9629 157.353C98.7271 160.402 104.717 160.81 109.851 158.436C114.985 156.063 118.553 151.235 119.317 145.63" stroke="#002D2D" stroke-width="3" stroke-linecap="round" stroke-linejoin="round"/>
<path d="M131.176 192.386C129.026 184.78 127.506 177.011 126.632 169.156C126.249 167.444 126.384 165.657 127.019 164.021C127.802 162.465 129.961 161.488 131.358 162.533C131.969 163.081 132.42 163.783 132.664 164.567L135.459 171.382C135.107 164.464 135.97 157.546 136.822 150.674C137.151 148.073 137.515 145.369 138.969 143.188C140.423 141.007 143.308 139.531 145.716 140.564C146.817 146.293 147.501 152.094 147.761 157.921L151.169 142.223C151.68 139.849 152.6 137.031 154.974 136.464C157.007 135.975 158.95 137.474 160.483 138.906" stroke="#002D2D" stroke-width="3" stroke-linecap="round" stroke-linejoin="round"/>
<path d="M238.578 199.746C229.036 171.428 223.186 141.973 217.518 112.62" stroke="#002D2D" stroke-width="3" stroke-linecap="round" stroke-linejoin="round"/>
<path d="M90.4522 290.337C70.119 267.141 51.2625 249.443 27.3057 229.962" stroke="#002D2D" stroke-width="3" stroke-linecap="round" stroke-linejoin="round"/>
<path d="M145.148 269.425C149.692 282.738 158.484 305.309 158.484 305.309" stroke="#002D2D" stroke-width="3" stroke-linecap="round" stroke-linejoin="round"/>
<path d="M163.016 261.019C168.934 273.832 173.296 282.715 179.203 295.517" stroke="#002D2D" stroke-width="3" stroke-linecap="round" stroke-linejoin="round"/>
<path d="M183.077 250.228C190.406 259.848 197.056 269.967 202.979 280.512" stroke="#002D2D" stroke-width="3" stroke-linecap="round" stroke-linejoin="round"/>
<path d="M200.365 240.345C209.036 249.2 216.747 258.948 223.368 269.425" stroke="#002D2D" stroke-width="3" stroke-linecap="round" stroke-linejoin="round"/>
<path fill-rule="evenodd" clip-rule="evenodd" d="M70.006 203.949C64.2922 200.317 59.2149 195.769 54.9776 190.488C29.9871 159.239 40.7443 106.27 74.7883 86.0394C100.381 70.8406 135.981 75.1685 157.189 96.0583C162.929 101.688 167.554 108.352 170.82 115.699C177.931 131.863 177.477 150.913 170.945 167.293C163.153 186.865 153.827 198.758 134.232 207.63C128.764 210.179 123.02 212.085 117.113 213.309C100.792 216.306 83.9419 212.958 70.006 203.949V203.949Z" stroke="#002D2D" stroke-width="3" stroke-linecap="round" stroke-linejoin="round"/>
</svg>
