<svg width="18" height="22" viewBox="0 0 18 22" fill="none" xmlns="http://www.w3.org/2000/svg">
<path d="M14.7852 5.65997C14.8366 2.99756 12.6351 0.955078 9.608 0.955078H3.34659C3.20068 0.95501 3.05953 1.00692 2.94859 1.10146C2.83764 1.19599 2.76419 1.32695 2.74145 1.47072L0.232662 17.1089C0.221437 17.1798 0.225741 17.2522 0.245278 17.3212C0.264815 17.3903 0.29912 17.4543 0.345832 17.5089C0.392543 17.5634 0.450552 17.6072 0.515863 17.6373C0.581174 17.6673 0.652236 17.6829 0.724157 17.6829H4.43363L3.85391 21.3039C3.84268 21.3747 3.84699 21.4472 3.86652 21.5162C3.88606 21.5853 3.92036 21.6493 3.96708 21.7038C4.01379 21.7584 4.0718 21.8022 4.13711 21.8322C4.20242 21.8623 4.27348 21.8779 4.3454 21.8779H7.36726C7.51303 21.8779 7.64298 21.8257 7.75422 21.7315C7.86451 21.6368 7.88273 21.5062 7.90575 21.3622L8.79284 16.156C8.81538 16.0125 8.88874 15.826 8.99951 15.7313C9.11027 15.6366 9.20713 15.5849 9.35338 15.5849H11.2024C14.1672 15.5849 16.6822 13.4826 17.142 10.5591C17.4676 8.48405 16.5757 6.59607 14.7852 5.65997Z" fill="#001C64"/>
<path d="M5.2368 11.9163L4.31279 17.7606L3.73259 21.4265C3.72143 21.4974 3.7258 21.5698 3.7454 21.6388C3.765 21.7079 3.79936 21.7718 3.84612 21.8263C3.89288 21.8808 3.95092 21.9246 4.01625 21.9546C4.08158 21.9846 4.15265 22.0001 4.22456 22H7.42288C7.56865 22 7.70961 21.948 7.82038 21.8535C7.93115 21.7589 8.00444 21.628 8.02706 21.4844L8.87003 16.1562C8.89276 16.0125 8.96615 15.8817 9.07699 15.7871C9.18784 15.6926 9.32887 15.6406 9.47469 15.6406H11.3572C14.322 15.6406 16.8371 13.4833 17.2974 10.5597C17.6235 8.48472 16.5762 6.59626 14.7857 5.66016C14.7809 5.88115 14.7618 6.10166 14.7277 6.32026C14.2679 9.24288 11.7519 11.4006 8.78804 11.4006H5.84146C5.69559 11.4008 5.55456 11.4529 5.44372 11.5475C5.33289 11.6421 5.25952 11.7725 5.2368 11.9163Z" fill="#0070E0"/>
<path d="M4.31193 17.7606H0.590947C0.519041 17.7606 0.447993 17.745 0.3827 17.715C0.317407 17.6849 0.259424 17.6411 0.212749 17.5865C0.166073 17.532 0.131816 17.468 0.112339 17.3989C0.0928619 17.3299 0.0886287 17.2574 0.0999312 17.1866L2.60872 1.31643C2.63144 1.17273 2.70483 1.04184 2.81568 0.947316C2.92652 0.852788 3.06755 0.800827 3.21338 0.800781H9.6081C12.6352 0.800781 14.8366 2.99825 14.7853 5.66017C14.032 5.26603 13.1469 5.04073 12.1773 5.04073H6.84613C6.70022 5.04066 6.55908 5.09257 6.44813 5.18711C6.33719 5.28165 6.26373 5.4126 6.24099 5.55638L5.2369 11.9163L4.31145 17.7606H4.31193Z" fill="#003087"/>
</svg>
