<svg width="9" height="13" viewBox="0 0 9 13" fill="none" xmlns="http://www.w3.org/2000/svg">
<path d="M6.75 3.875C6.9375 3.875 7.125 4.0625 7.125 4.25C7.125 4.46094 6.9375 4.625 6.75 4.625H2.25C2.03906 4.625 1.875 4.46094 1.875 4.25C1.875 4.0625 2.03906 3.875 2.25 3.875H6.75ZM1.875 8.75C1.875 8.5625 2.03906 8.375 2.25 8.375H6.75C6.9375 8.375 7.125 8.5625 7.125 8.75C7.125 8.96094 6.9375 9.125 6.75 9.125H2.25C2.03906 9.125 1.875 8.96094 1.875 8.75ZM6.75 6.125C6.9375 6.125 7.125 6.3125 7.125 6.5C7.125 6.71094 6.9375 6.875 6.75 6.875H2.25C2.03906 6.875 1.875 6.71094 1.875 6.5C1.875 6.3125 2.03906 6.125 2.25 6.125H6.75ZM1.85156 1.69531L2.90625 0.617188C3.04688 0.476562 3.30469 0.476562 3.44531 0.617188L4.5 1.67188L5.53125 0.617188C5.67188 0.476562 5.92969 0.476562 6.07031 0.617188L7.125 1.69531L8.36719 0.59375C8.48438 0.5 8.625 0.476562 8.76562 0.546875C8.90625 0.617188 9 0.734375 9 0.875V12.125C9 12.2891 8.90625 12.4062 8.76562 12.4766C8.625 12.5469 8.48438 12.5234 8.36719 12.4062L7.125 11.3281L6.07031 12.4062C5.92969 12.5469 5.67188 12.5469 5.53125 12.4062L4.5 11.3516L3.44531 12.4062C3.30469 12.5469 3.04688 12.5469 2.90625 12.4062L1.85156 11.3281L0.609375 12.4062C0.492188 12.5234 0.351562 12.5469 0.210938 12.4766C0.0703125 12.4062 0 12.2891 0 12.125V0.875C0 0.734375 0.0703125 0.617188 0.210938 0.546875C0.351562 0.476562 0.492188 0.5 0.609375 0.59375L1.85156 1.69531ZM1.61719 10.5312C1.75781 10.4141 1.99219 10.4141 2.13281 10.5547L3.1875 11.6094L4.21875 10.5547C4.35938 10.4141 4.61719 10.4141 4.75781 10.5547L5.8125 11.6094L6.84375 10.5547C6.98438 10.4141 7.21875 10.4141 7.35938 10.5312L8.25 11.3047V1.71875L7.35938 2.49219C7.21875 2.60938 6.98438 2.60938 6.84375 2.46875L5.8125 1.41406L4.75781 2.46875C4.61719 2.60938 4.35938 2.60938 4.21875 2.46875L3.1875 1.41406L2.13281 2.46875C1.99219 2.60938 1.75781 2.60938 1.61719 2.49219L0.75 1.71875V11.3047L1.61719 10.5312Z" fill="#494949"/>
</svg>
