<svg width="151" height="72" viewBox="0 0 151 72" fill="none" xmlns="http://www.w3.org/2000/svg">
<path d="M150.5 45C150.5 54.941 142.441 63 132.5 63C122.56 63 114.5 54.941 114.5 45C114.5 35.06 122.56 27 132.5 27C142.441 27 150.5 35.06 150.5 45Z" fill="#FFCC4D"/>
<path d="M126 47C127.381 47 128.5 45.433 128.5 43.5C128.5 41.567 127.381 40 126 40C124.619 40 123.5 41.567 123.5 43.5C123.5 45.433 124.619 47 126 47Z" fill="#664500"/>
<path d="M139 47C140.381 47 141.5 45.433 141.5 43.5C141.5 41.567 140.381 40 139 40C137.619 40 136.5 41.567 136.5 43.5C136.5 45.433 137.619 47 139 47Z" fill="#664500"/>
<path d="M139.5 53H125.5C124.948 53 124.5 52.553 124.5 52C124.5 51.447 124.948 51 125.5 51H139.5C140.053 51 140.5 51.447 140.5 52C140.5 52.553 140.053 53 139.5 53Z" fill="#664500"/>
<path d="M36.5 45C36.5 54.941 28.441 63 18.5 63C8.56 63 0.5 54.941 0.5 45C0.5 35.06 8.56 27 18.5 27C28.441 27 36.5 35.06 36.5 45Z" fill="#FFCC4D"/>
<path d="M12 47C13.3807 47 14.5 45.433 14.5 43.5C14.5 41.567 13.3807 40 12 40C10.6193 40 9.5 41.567 9.5 43.5C9.5 45.433 10.6193 47 12 47Z" fill="#664500"/>
<path d="M24.9999 47C26.3806 47 27.4999 45.433 27.4999 43.5C27.4999 41.567 26.3806 40 24.9999 40C23.6192 40 22.4999 41.567 22.4999 43.5C22.4999 45.433 23.6192 47 24.9999 47Z" fill="#664500"/>
<path d="M25.5002 53H11.5002C10.9482 53 10.5002 52.553 10.5002 52C10.5002 51.447 10.9482 51 11.5002 51H25.5002C26.0532 51 26.5002 51.447 26.5002 52C26.5002 52.553 26.0532 53 25.5002 53Z" fill="#664500"/>
<path d="M111.5 36C111.5 55.882 95.382 72 75.5 72C55.62 72 39.5 55.882 39.5 36C39.5 16.12 55.62 0 75.5 0C95.382 0 111.5 16.12 111.5 36Z" fill="#FFCC4D"/>
<path d="M89.4994 52H61.4994C60.3954 52 59.4994 51.106 59.4994 50C59.4994 48.894 60.3954 48 61.4994 48H89.4994C90.6054 48 91.4994 48.894 91.4994 50C91.4994 51.106 90.6054 52 89.4994 52ZM69.4994 36H55.4994C54.3954 36 53.4994 35.104 53.4994 34C53.4994 32.896 54.3954 32 55.4994 32H69.4994C70.6034 32 71.4994 32.896 71.4994 34C71.4994 35.104 70.6034 36 69.4994 36ZM95.4994 36H81.4994C80.3934 36 79.4994 35.104 79.4994 34C79.4994 32.896 80.3934 32 81.4994 32H95.4994C96.6054 32 97.4994 32.896 97.4994 34C97.4994 35.104 96.6054 36 95.4994 36Z" fill="#664500"/>
</svg>
