<svg width="98" height="102" viewBox="0 0 98 102" fill="none" xmlns="http://www.w3.org/2000/svg">
<path opacity="0.1" d="M75.5 -51L83.671 -10.2994L108.692 -43.4241L98.3945 -3.20885L135.31 -22.197L108.584 9.56779L150.082 8.47715L112.22 25.5L150.082 42.5229L108.584 41.4322L135.31 73.197L98.3945 54.2088L108.692 94.4241L83.671 61.2993L75.5 102L67.329 61.2993L42.3079 94.4241L52.6055 54.2088L15.6899 73.197L42.4164 41.4322L0.918015 42.5229L38.78 25.5L0.918015 8.47715L42.4164 9.56779L15.6899 -22.197L52.6055 -3.20885L42.3079 -43.4241L67.329 -10.2994L75.5 -51Z" fill="#7DB1FA"/>
</svg>
