<svg width="30" height="20" viewBox="0 0 30 20" fill="none" xmlns="http://www.w3.org/2000/svg">
<path d="M19.5 10.25C19.5 12.9414 17.3164 15.125 14.625 15.125C11.8828 15.125 9.75 12.9414 9.75 10.25C9.75 7.55859 11.8828 5.375 14.625 5.375C17.3164 5.375 19.5 7.55859 19.5 10.25ZM14.625 7C12.7969 7 11.375 8.47266 11.375 10.25C11.375 12.0781 12.7969 13.5 14.625 13.5C16.4023 13.5 17.875 12.0781 17.875 10.25C17.875 8.47266 16.4023 7 14.625 7ZM0 3.75C0 1.97266 1.42188 0.5 3.25 0.5H26C27.7773 0.5 29.25 1.97266 29.25 3.75V16.75C29.25 18.5781 27.7773 20 26 20H3.25C1.42188 20 0 18.5781 0 16.75V3.75ZM27.625 5.375V3.75C27.625 2.88672 26.8633 2.125 26 2.125H24.375C24.375 3.95312 25.7969 5.375 27.625 5.375ZM22.75 2.125H6.5C6.5 4.81641 4.31641 7 1.625 7V13.5C4.31641 13.5 6.5 15.6836 6.5 18.375H22.75C22.75 15.6836 24.8828 13.5 27.625 13.5V7C24.8828 7 22.75 4.81641 22.75 2.125ZM3.25 18.375H4.875C4.875 16.5977 3.40234 15.125 1.625 15.125V16.75C1.625 17.6641 2.33594 18.375 3.25 18.375ZM27.625 15.125C25.7969 15.125 24.375 16.5977 24.375 18.375H26C26.8633 18.375 27.625 17.6641 27.625 16.75V15.125ZM1.625 3.75V5.375C3.40234 5.375 4.875 3.95312 4.875 2.125H3.25C2.33594 2.125 1.625 2.88672 1.625 3.75Z" fill="#32A68C"/>
</svg>
