<svg width="73" height="74" viewBox="0 0 73 74" fill="none" xmlns="http://www.w3.org/2000/svg">
<path opacity="0.1" d="M74.2188 -1.35938C66.2109 -9.5625 55.2734 -14.25 43.5547 -14.25C19.7266 -14.25 0.195312 5.28125 0.195312 29.1094C0.195312 36.9219 2.34375 44.3438 6.05469 50.7891L0 73.25L22.8516 67.3906C29.2969 70.7109 36.3281 72.6641 43.5547 72.6641C67.5781 72.6641 87.5 53.1328 87.5 29.3047C87.5 17.5859 82.4219 6.84375 74.2188 -1.35938ZM43.5547 65.2422C37.1094 65.2422 30.8594 63.4844 25.1953 60.1641L24.0234 59.3828L10.3516 63.0938L14.0625 49.8125L13.0859 48.4453C9.57031 42.5859 7.61719 35.9453 7.61719 29.1094C7.61719 9.38281 23.8281 -6.82812 43.75 -6.82812C53.3203 -6.82812 62.3047 -3.11719 69.1406 3.71875C75.9766 10.5547 80.0781 19.5391 80.0781 29.3047C80.0781 49.0312 63.4766 65.2422 43.5547 65.2422ZM63.4766 38.2891C62.3047 37.7031 57.0312 35.1641 56.0547 34.7734C55.0781 34.3828 54.2969 34.1875 53.5156 35.3594C52.9297 36.3359 50.7812 38.875 50.1953 39.6562C49.4141 40.2422 48.8281 40.4375 47.8516 39.8516C41.4062 36.7266 37.3047 34.1875 33.0078 26.9609C31.8359 25.0078 34.1797 25.2031 36.1328 21.1016C36.5234 20.3203 36.3281 19.7344 36.1328 19.1484C35.9375 18.5625 33.5938 13.2891 32.8125 11.1406C31.8359 8.99219 31.0547 9.1875 30.2734 9.1875C29.6875 9.1875 28.9062 9.1875 28.3203 9.1875C27.5391 9.1875 26.3672 9.38281 25.3906 10.5547C24.4141 11.7266 21.6797 14.2656 21.6797 19.5391C21.6797 25.0078 25.3906 30.0859 25.9766 30.8672C26.5625 31.4531 33.5938 42.3906 44.5312 47.0781C51.3672 50.2031 54.1016 50.3984 57.6172 49.8125C59.5703 49.6172 63.8672 47.2734 64.8438 44.7344C65.8203 42.1953 65.8203 40.0469 65.4297 39.6562C65.2344 39.0703 64.4531 38.875 63.4766 38.2891Z" fill="white"/>
</svg>
