<svg width="18" height="17" viewBox="0 0 18 17" fill="none" xmlns="http://www.w3.org/2000/svg">
<path d="M15.75 0.375H2.25C0.984375 0.375 0 1.39453 0 2.625V13.875C0 15.1406 0.984375 16.125 2.25 16.125H15.75C16.9805 16.125 18 15.1406 18 13.875V2.625C18 1.39453 16.9805 0.375 15.75 0.375ZM15.2227 1.5L11.8477 4.875H8.08594L11.4609 1.5H15.2227ZM9.87891 1.5L6.50391 4.875H2.74219L6.11719 1.5H9.87891ZM1.125 2.625C1.125 2.02734 1.61719 1.5 2.25 1.5H4.53516L1.16016 4.875H1.125V2.625ZM16.875 13.875C16.875 14.5078 16.3477 15 15.75 15H2.25C1.61719 15 1.125 14.5078 1.125 13.875V6H16.875V13.875ZM16.875 4.875H13.4297L16.4883 1.81641C16.7344 2.02734 16.875 2.30859 16.875 2.625V4.875Z" fill="#002D2D"/>
</svg>
