<svg width="24" height="24" viewBox="0 0 24 24" fill="none" xmlns="http://www.w3.org/2000/svg">
<circle cx="12" cy="12" r="11.3226" fill="white" stroke="#32A68C" stroke-width="1.35484"/>
<mask id="path-2-inside-1_1082_642" fill="white">
<path d="M17.9992 8.66656L9.99919 16.6666L6.33252 12.9999L7.27252 12.0599L9.99919 14.7799L17.0592 7.72656L17.9992 8.66656Z"/>
</mask>
<path d="M17.9992 8.66656L9.99919 16.6666L6.33252 12.9999L7.27252 12.0599L9.99919 14.7799L17.0592 7.72656L17.9992 8.66656Z" fill="black"/>
<path d="M17.9992 8.66656L18.9572 9.62458L19.9152 8.66656L18.9572 7.70855L17.9992 8.66656ZM9.99919 16.6666L9.04117 17.6246L9.99919 18.5826L10.9572 17.6246L9.99919 16.6666ZM6.33252 12.9999L5.3745 12.0419L4.41649 12.9999L5.3745 13.9579L6.33252 12.9999ZM7.27252 12.0599L8.22936 11.1007L7.27135 10.145L6.3145 11.1019L7.27252 12.0599ZM9.99919 14.7799L9.04234 15.7391L9.99991 16.6943L10.9567 15.7384L9.99919 14.7799ZM17.0592 7.72656L18.0172 6.76855L17.0596 5.81098L16.1016 6.76809L17.0592 7.72656ZM17.0412 7.70855L9.04117 15.7085L10.9572 17.6246L18.9572 9.62458L17.0412 7.70855ZM10.9572 15.7085L7.29054 12.0419L5.3745 13.9579L9.04117 17.6246L10.9572 15.7085ZM7.29054 13.9579L8.23054 13.0179L6.3145 11.1019L5.3745 12.0419L7.29054 13.9579ZM6.31568 13.0191L9.04234 15.7391L10.956 13.8207L8.22936 11.1007L6.31568 13.0191ZM10.9567 15.7384L18.0167 8.68503L16.1016 6.76809L9.04162 13.8214L10.9567 15.7384ZM16.1012 8.68458L17.0412 9.62458L18.9572 7.70855L18.0172 6.76855L16.1012 8.68458Z" fill="#32A68C" mask="url(#path-2-inside-1_1082_642)"/>
</svg>
