<svg width="19" height="15" viewBox="0 0 19 15" fill="none" xmlns="http://www.w3.org/2000/svg">
<path d="M3.67188 4.69922C3.56641 4.80469 3.42578 4.875 3.25 4.875C3.10938 4.91016 2.93359 4.83984 2.82812 4.73438L1.14062 3.04688C0.929688 2.83594 0.929688 2.44922 1.14062 2.23828C1.35156 2.02734 1.73828 2.02734 1.94922 2.23828L3.17969 3.50391L5.60547 0.585938C5.81641 0.339844 6.16797 0.339844 6.41406 0.515625C6.66016 0.726562 6.66016 1.07812 6.48438 1.32422L3.67188 4.69922ZM3.67188 10.3242C3.56641 10.4297 3.42578 10.5 3.25 10.5C3.10938 10.5352 2.93359 10.4648 2.82812 10.3594L1.14062 8.67188C0.929688 8.46094 0.929688 8.07422 1.14062 7.86328C1.35156 7.65234 1.73828 7.65234 1.94922 7.86328L3.17969 9.12891L5.60547 6.21094C5.81641 5.96484 6.16797 5.96484 6.41406 6.14062C6.66016 6.35156 6.66016 6.70312 6.48438 6.94922L3.67188 10.3242ZM7.71484 2.625C7.71484 2.34375 7.99609 2.0625 8.27734 2.0625H18.4375C18.7188 2.0625 19 2.34375 19 2.625C19 2.94141 18.7188 3.1875 18.4375 3.1875H8.27734C7.99609 3.1875 7.71484 2.94141 7.71484 2.625ZM7.71484 8.25C7.71484 7.96875 7.99609 7.6875 8.27734 7.6875H18.4375C18.7188 7.6875 19 7.96875 19 8.25C19 8.56641 18.7188 8.8125 18.4375 8.8125H8.27734C7.99609 8.8125 7.71484 8.56641 7.71484 8.25ZM6.58984 13.875C6.58984 13.5938 6.87109 13.3125 7.15234 13.3125H18.4375C18.7188 13.3125 19 13.5938 19 13.875C19 14.1914 18.7188 14.4375 18.4375 14.4375H7.15234C6.87109 14.4375 6.58984 14.1914 6.58984 13.875ZM3.21484 15C2.61719 15 2.08984 14.5078 2.08984 13.875C2.08984 13.2773 2.61719 12.75 3.21484 12.75C3.84766 12.75 4.33984 13.2773 4.33984 13.875C4.33984 14.5078 3.84766 15 3.21484 15Z" fill="#002D2D"/>
</svg>
