<svg width="31" height="24" viewBox="0 0 31 24" fill="none" xmlns="http://www.w3.org/2000/svg">
<g clip-path="url(#clip0_1257_1526)">
<path d="M5.61331 23.8807V22.2922C5.61331 21.6832 5.24258 21.2861 4.60712 21.2861C4.28945 21.2861 3.94525 21.392 3.70694 21.7362C3.5217 21.445 3.25697 21.2861 2.85983 21.2861C2.59498 21.2861 2.33038 21.3655 2.11848 21.6567V21.3391H1.5625V23.8807H2.11848V22.4775C2.11848 22.0275 2.35679 21.8156 2.72753 21.8156C3.09802 21.8156 3.28351 22.0539 3.28351 22.4775V23.8807H3.83949V22.4775C3.83949 22.0275 4.10409 21.8156 4.44829 21.8156C4.81902 21.8156 5.00427 22.0539 5.00427 22.4775V23.8807H5.61331ZM13.847 21.3391H12.9469V20.5713H12.391V21.3391H11.8879V21.842H12.3908V23.007C12.3908 23.5895 12.6292 23.9336 13.2646 23.9336C13.5029 23.9336 13.7675 23.8543 13.953 23.7484L13.7941 23.2717C13.6352 23.3776 13.45 23.4042 13.3176 23.4042C13.0528 23.4042 12.9469 23.2453 12.9469 22.9805V21.842H13.847V21.3391ZM18.5597 21.286C18.242 21.286 18.0302 21.445 17.8978 21.6567V21.3391H17.3418V23.8807H17.8978V22.451C17.8978 22.0275 18.0831 21.7892 18.4273 21.7892C18.5332 21.7892 18.6656 21.8157 18.7715 21.8421L18.9303 21.3127C18.8244 21.2861 18.6656 21.2861 18.5597 21.2861V21.286ZM11.4378 21.5509C11.173 21.3655 10.8024 21.2861 10.4052 21.2861C9.7699 21.2861 9.34634 21.6038 9.34634 22.1068C9.34634 22.5305 9.66401 22.7687 10.22 22.8482L10.4847 22.8747C10.776 22.9275 10.9348 23.007 10.9348 23.1394C10.9348 23.3247 10.723 23.4571 10.3523 23.4571C9.98168 23.4571 9.69042 23.3247 9.50505 23.1924L9.24033 23.6159C9.53159 23.8277 9.92873 23.9336 10.3258 23.9336C11.0671 23.9336 11.4908 23.5895 11.4908 23.1129C11.4908 22.6628 11.1466 22.4245 10.617 22.3451L10.3523 22.3186C10.114 22.2921 9.92873 22.2393 9.92873 22.0804C9.92873 21.8951 10.114 21.7892 10.4052 21.7892C10.723 21.7892 11.0407 21.9215 11.1995 22.0009L11.4378 21.5509ZM26.2111 21.2861C25.8933 21.2861 25.6815 21.445 25.5491 21.6567V21.3391H24.9931V23.8807H25.5491V22.451C25.5491 22.0275 25.7345 21.7892 26.0786 21.7892C26.1846 21.7892 26.317 21.8157 26.4229 21.8421L26.5817 21.3127C26.4758 21.2861 26.317 21.2861 26.2111 21.2861ZM19.1157 22.6099C19.1157 23.3776 19.6451 23.9336 20.4659 23.9336C20.8365 23.9336 21.1013 23.8543 21.366 23.6425L21.1013 23.1924C20.8895 23.3512 20.6777 23.4306 20.4394 23.4306C19.9893 23.4306 19.6716 23.1129 19.6716 22.6099C19.6716 22.1334 19.9893 21.8156 20.4394 21.7892C20.6777 21.7892 20.8895 21.8685 21.1013 22.0275L21.366 21.5774C21.1013 21.3655 20.8365 21.2861 20.4659 21.2861C19.6451 21.2861 19.1157 21.8421 19.1157 22.6099ZM24.2519 22.6099V21.3391H23.6959V21.6567C23.5106 21.4186 23.2458 21.2861 22.9016 21.2861C22.1868 21.2861 21.6308 21.8421 21.6308 22.6099C21.6308 23.3776 22.1868 23.9336 22.9016 23.9336C23.2723 23.9336 23.5371 23.8013 23.6959 23.563V23.8807H24.2519V22.6099ZM22.2132 22.6099C22.2132 22.1598 22.5045 21.7892 22.981 21.7892C23.4311 21.7892 23.7489 22.1334 23.7489 22.6099C23.7489 23.06 23.4311 23.4306 22.981 23.4306C22.5045 23.404 22.2132 23.06 22.2132 22.6099ZM15.568 21.2861C14.8267 21.2861 14.2971 21.8156 14.2971 22.6099C14.2971 23.4042 14.8265 23.9336 15.5944 23.9336C15.965 23.9336 16.3358 23.8277 16.627 23.5895L16.3622 23.1924C16.1504 23.3512 15.8857 23.4571 15.621 23.4571C15.2768 23.4571 14.9326 23.2983 14.8531 22.8481H16.7329V22.6364C16.7594 21.8156 16.2829 21.2861 15.568 21.2861ZM15.568 21.7626C15.9121 21.7626 16.1505 21.9745 16.2033 22.3717H14.8796C14.9326 22.0275 15.1709 21.7626 15.568 21.7626ZM29.3616 22.6099V20.333H28.8056V21.6567C28.6203 21.4186 28.3555 21.2861 28.0113 21.2861C27.2965 21.2861 26.7406 21.8421 26.7406 22.6099C26.7406 23.3776 27.2965 23.9336 28.0113 23.9336C28.3821 23.9336 28.6468 23.8013 28.8056 23.563V23.8807H29.3616V22.6099ZM27.3231 22.6099C27.3231 22.1598 27.6142 21.7892 28.0908 21.7892C28.5409 21.7892 28.8586 22.1334 28.8586 22.6099C28.8586 23.06 28.5409 23.4306 28.0908 23.4306C27.6142 23.404 27.3231 23.06 27.3231 22.6099ZM8.73729 22.6099V21.3391H8.18131V21.6567C7.99595 21.4186 7.73122 21.2861 7.38702 21.2861C6.67221 21.2861 6.11623 21.8421 6.11623 22.6099C6.11623 23.3776 6.67221 23.9336 7.38702 23.9336C7.75776 23.9336 8.02248 23.8013 8.18131 23.563V23.8807H8.73729V22.6099ZM6.67221 22.6099C6.67221 22.1598 6.96347 21.7892 7.43997 21.7892C7.89006 21.7892 8.20785 22.1334 8.20785 22.6099C8.20785 23.06 7.89006 23.4306 7.43997 23.4306C6.96347 23.404 6.67221 23.06 6.67221 22.6099Z" fill="black"/>
<path d="M11.252 2.03809H19.5917V17.0231H11.252V2.03809Z" fill="#FF5F00"/>
<path d="M11.7816 9.53114C11.7816 6.48651 13.2112 3.78597 15.4086 2.03855C13.7937 0.767759 11.7552 0 9.53126 0C4.26247 0 0 4.26247 0 9.53114C0 14.7997 4.26247 19.0623 9.53114 19.0623C11.7551 19.0623 13.7936 18.2945 15.4086 17.0236C13.2112 15.3027 11.7816 12.5758 11.7816 9.53114Z" fill="#EB001B"/>
<path d="M30.8442 9.53114C30.8442 14.7997 26.5817 19.0623 21.313 19.0623C19.0891 19.0623 17.0505 18.2945 15.4355 17.0236C17.6595 15.2763 19.0627 12.5758 19.0627 9.53114C19.0627 6.48651 17.6329 3.78597 15.4355 2.03855C17.0504 0.767759 19.0891 0 21.313 0C26.5817 0 30.8442 4.28901 30.8442 9.53114Z" fill="#F79E1B"/>
</g>
<defs>
<clipPath id="clip0_1257_1526">
<rect width="30.8744" height="24" fill="white"/>
</clipPath>
</defs>
</svg>
