<svg width="83" height="101" viewBox="0 0 83 101" fill="none" xmlns="http://www.w3.org/2000/svg">
<path opacity="0.1" d="M50 20.2266L57.4219 8.11719C60.3516 3.42969 65.625 0.5 71.2891 0.5H71.875C80.4688 0.5 87.5 7.53125 87.5 16.125C87.5 19.8359 86.3281 22.9609 84.375 25.5H90.625C95.7031 25.5 100 29.7969 100 34.875V47.375C100 51.4766 97.2656 54.9922 93.75 56.3594V88C93.75 95.0312 88.0859 100.5 81.25 100.5H18.75C11.7188 100.5 6.25 95.0312 6.25 88V56.3594C2.53906 54.9922 0 51.4766 0 47.375V34.875C0 29.7969 4.10156 25.5 9.375 25.5H15.4297C13.4766 22.9609 12.5 19.8359 12.5 16.125C12.5 7.53125 19.3359 0.5 28.125 0.5H28.5156C34.1797 0.5 39.4531 3.42969 42.3828 8.11719L50 20.2266ZM71.2891 6.75C67.7734 6.75 64.6484 8.70312 62.6953 11.4375L53.9062 25.5H71.875C76.9531 25.5 81.25 21.3984 81.25 16.125C81.25 11.0469 76.9531 6.75 71.875 6.75H71.2891ZM45.8984 25.5L37.1094 11.4375C35.1562 8.70312 32.0312 6.75 28.5156 6.75H28.125C22.8516 6.75 18.75 11.0469 18.75 16.125C18.75 21.3984 22.8516 25.5 28.125 25.5H45.8984ZM9.375 31.75C7.61719 31.75 6.25 33.3125 6.25 34.875V47.375C6.25 49.1328 7.61719 50.5 9.375 50.5H46.875V31.75H9.375ZM53.125 50.5H90.625C92.1875 50.5 93.75 49.1328 93.75 47.375V34.875C93.75 33.3125 92.1875 31.75 90.625 31.75H53.125V50.5ZM46.875 56.75H12.5V88C12.5 91.5156 15.2344 94.25 18.75 94.25H46.875V56.75ZM53.125 94.25H81.25C84.5703 94.25 87.5 91.5156 87.5 88V56.75H53.125V94.25Z" fill="white"/>
</svg>
