<svg width="23" height="24" viewBox="0 0 23 24" fill="none" xmlns="http://www.w3.org/2000/svg">
<path d="M6.5 8.59375C5.78906 8.59375 5.28125 8.08594 5.28125 7.375C5.28125 6.71484 5.78906 6.15625 6.5 6.15625C7.16016 6.15625 7.71875 6.71484 7.71875 7.375C7.71875 8.08594 7.16016 8.59375 6.5 8.59375ZM9.75 7.375C9.75 6.96875 10.1055 6.5625 10.5625 6.5625H17.0625C17.4688 6.5625 17.875 6.96875 17.875 7.375C17.875 7.83203 17.4688 8.1875 17.0625 8.1875H10.5625C10.1055 8.1875 9.75 7.83203 9.75 7.375ZM9.75 12.25C9.75 11.8438 10.1055 11.4375 10.5625 11.4375H17.0625C17.4688 11.4375 17.875 11.8438 17.875 12.25C17.875 12.707 17.4688 13.0625 17.0625 13.0625H10.5625C10.1055 13.0625 9.75 12.707 9.75 12.25ZM9.75 17.125C9.75 16.7188 10.1055 16.3125 10.5625 16.3125H17.0625C17.4688 16.3125 17.875 16.7188 17.875 17.125C17.875 17.582 17.4688 17.9375 17.0625 17.9375H10.5625C10.1055 17.9375 9.75 17.582 9.75 17.125ZM6.5 11.0312C7.16016 11.0312 7.71875 11.5898 7.71875 12.25C7.71875 12.9609 7.16016 13.4688 6.5 13.4688C5.78906 13.4688 5.28125 12.9609 5.28125 12.25C5.28125 11.5898 5.78906 11.0312 6.5 11.0312ZM6.5 18.3438C5.78906 18.3438 5.28125 17.8359 5.28125 17.125C5.28125 16.4648 5.78906 15.9062 6.5 15.9062C7.16016 15.9062 7.71875 16.4648 7.71875 17.125C7.71875 17.8359 7.16016 18.3438 6.5 18.3438ZM0 4.125C0 2.34766 1.42188 0.875 3.25 0.875H19.5C21.2773 0.875 22.75 2.34766 22.75 4.125V20.375C22.75 22.2031 21.2773 23.625 19.5 23.625H3.25C1.42188 23.625 0 22.2031 0 20.375V4.125ZM1.625 4.125V20.375C1.625 21.2891 2.33594 22 3.25 22H19.5C20.3633 22 21.125 21.2891 21.125 20.375V4.125C21.125 3.26172 20.3633 2.5 19.5 2.5H3.25C2.33594 2.5 1.625 3.26172 1.625 4.125Z" fill="#4165B9"/>
</svg>
