<svg width="26" height="24" viewBox="0 0 26 24" fill="none" xmlns="http://www.w3.org/2000/svg">
<path d="M22.75 0.875C24.5273 0.875 26 2.34766 26 4.125V20.375C26 22.2031 24.5273 23.625 22.75 23.625H3.25C1.42188 23.625 0 22.2031 0 20.375V4.125C0 2.34766 1.42188 0.875 3.25 0.875H22.75ZM22.75 2.5H3.25C2.33594 2.5 1.625 3.26172 1.625 4.125V7.375H24.375V4.125C24.375 3.26172 23.6133 2.5 22.75 2.5ZM3.25 22H12.1875V9H1.625V20.375C1.625 21.2891 2.33594 22 3.25 22ZM13.8125 22H22.75C23.6133 22 24.375 21.2891 24.375 20.375V9H13.8125V22Z" fill="#5862ED"/>
</svg>
