<svg width="64" height="56" viewBox="0 0 64 56" fill="none" xmlns="http://www.w3.org/2000/svg">
<path d="M16 52V24C16 21.75 14.125 20 12 20H4C1.75 20 0 21.875 0 24V51.875C0 54 1.75 55.75 4 55.75H12C14.125 56 16 54.25 16 52ZM64 24.125C64 20.75 61.25 18.125 58 18.125H39.625C42.5 13.375 44 8 44 6.125C44 3.125 41.625 0 37.75 0C29.875 0 34.5 9.625 24.25 17.75L22.25 19.375C20.75 20.625 20 22.25 20 24C20 24.125 20 24 20 24V44C20 46 20.875 47.75 22.375 48.875L26.625 52C30.125 54.625 34.25 56 38.625 56H46C49.25 56 52 53.375 52 50.125C52 49.625 51.875 49.125 51.75 48.75C54.25 48 56 45.75 56 43C56 41.875 55.625 40.875 55 40C57.875 39.375 60 37 60 34.125C60 32.5 59.375 31.125 58.375 30C61.5 29.875 64 27.25 64 24.125Z" fill="#5862ED"/>
</svg>
